<svg width="112" height="847" viewBox="0 0 112 847" fill="none" xmlns="http://www.w3.org/2000/svg">
<g filter="url(#filter0_d_901_88)">
<rect x="51" y="12" width="8" height="815" fill="white"/>
<path fill-rule="evenodd" clip-rule="evenodd" d="M96 420C96 442.091 78.0914 460 56 460C33.9086 460 16 442.091 16 420C16 397.909 33.9086 380 56 380C78.0914 380 96 397.909 96 420ZM40.8906 433.532C40.8908 433.794 40.813 434.051 40.6671 434.27C40.5211 434.489 40.3136 434.659 40.0708 434.76C39.828 434.86 39.5608 434.886 39.303 434.835C39.0453 434.784 38.8085 434.657 38.6228 434.471L25.3415 421.19C25.2181 421.067 25.1201 420.92 25.0533 420.759C24.9864 420.598 24.952 420.425 24.952 420.25C24.952 420.076 24.9864 419.903 25.0533 419.742C25.1201 419.58 25.2181 419.434 25.3415 419.311L38.6228 406.029C38.8085 405.843 39.0453 405.717 39.303 405.665C39.5608 405.614 39.828 405.64 40.0708 405.741C40.3136 405.842 40.5211 406.012 40.6671 406.231C40.813 406.449 40.8908 406.706 40.8906 406.969V433.532ZM72.3771 434.471L85.6584 421.19C85.7819 421.067 85.8798 420.92 85.9467 420.759C86.0135 420.598 86.0479 420.425 86.0479 420.25C86.0479 420.076 86.0135 419.903 85.9467 419.742C85.8798 419.58 85.7819 419.434 85.6584 419.311L72.3771 406.029C72.1914 405.843 71.9547 405.717 71.6969 405.665C71.4391 405.614 71.1719 405.64 70.9291 405.741C70.6863 405.842 70.4788 406.012 70.3329 406.231C70.187 406.449 70.1092 406.706 70.1094 406.969V433.532C70.1092 433.794 70.187 434.051 70.3329 434.27C70.4788 434.489 70.6863 434.659 70.9291 434.76C71.1719 434.86 71.4391 434.886 71.6969 434.835C71.9547 434.784 72.1914 434.657 72.3771 434.471Z" fill="white"/>
</g>
<defs>
<filter id="filter0_d_901_88" x="0" y="0" width="112" height="847" filterUnits="userSpaceOnUse" color-interpolation-filters="sRGB">
<feFlood flood-opacity="0" result="BackgroundImageFix"/>
<feColorMatrix in="SourceAlpha" type="matrix" values="0 0 0 0 0 0 0 0 0 0 0 0 0 0 0 0 0 0 127 0" result="hardAlpha"/>
<feOffset dy="4"/>
<feGaussianBlur stdDeviation="8"/>
<feComposite in2="hardAlpha" operator="out"/>
<feColorMatrix type="matrix" values="0 0 0 0 0 0 0 0 0 0 0 0 0 0 0 0 0 0 0.3 0"/>
<feBlend mode="normal" in2="BackgroundImageFix" result="effect1_dropShadow_901_88"/>
<feBlend mode="normal" in="SourceGraphic" in2="effect1_dropShadow_901_88" result="shape"/>
</filter>
</defs>
</svg>
